<?xml version="1.0" encoding="UTF-8"?>
<svg id="Layer_2" data-name="Layer 2" xmlns="http://www.w3.org/2000/svg" xmlns:xlink="http://www.w3.org/1999/xlink" viewBox="0 0 136.69 66.5">
  <defs>
    <style>
      .cls-1 {
        fill: none;
      }

      .cls-2 {
        fill: #dd853c;
      }

      .cls-3 {
        font-family: Gilmer-Light, Gilmer;
        font-size: 11.69px;
        font-weight: 300;
      }

      .cls-3, .cls-4 {
        fill: #fff;
      }

      .cls-4 {
        font-family: DINCondensed-Bold, 'DIN Condensed';
        font-size: 28px;
        font-weight: 700;
      }

      .cls-5 {
        fill: #f7931e;
      }

      .cls-6 {
        fill: #e88d3a;
      }

      .cls-7 {
        letter-spacing: -.03em;
      }

      .cls-8 {
        letter-spacing: 0em;
      }

      .cls-9 {
        letter-spacing: 0em;
      }

      .cls-10 {
        clip-path: url(#clippath);
      }
    </style>
    <clipPath id="clippath">
      <path class="cls-1" d="M28.01,32.22l7.84-12.53c4.54-7.26-.68-16.69-9.25-16.69h-15.67c-8.57,0-13.79,9.43-9.25,16.69l7.84,12.53c4.27,6.83,14.22,6.83,18.49,0Z"/>
    </clipPath>
  </defs>
  <g id="Layer_1-2" data-name="Layer 1">
    <g>
      <text class="cls-4" transform="translate(37.35 45.31)"><tspan x="0" y="0">Octof</tspan><tspan class="cls-8" x="44.58" y="0">r</tspan><tspan x="52.19" y="0">ames</tspan></text>
      <g>
        <path class="cls-5" d="M40.85,52h59c0,7.63-6.19,13.82-13.82,13.82h-45.18v-13.82h0Z"/>
        <text class="cls-3" transform="translate(49.42 62.6)"><tspan class="cls-7" x="0" y="0">S</tspan><tspan class="cls-9" x="7.4" y="0">t</tspan><tspan x="12.04" y="0">udio</tspan></text>
      </g>
      <path class="cls-6" d="M35.29,60.23l-1.01-1.92c-.26-.49-.77-.8-1.33-.8h-7.77v3h6.86l.59,1.12c.3.58.07,1.07-.04,1.26-.11.19-.44.62-1.1.62h-5.66c-2.01,0-3.66-1.57-3.75-3.57l-.42-11.99.77,4.78c.25,1.52,1.69,2.62,3.43,2.62h4.25c1.34,0,2.53-.65,3.12-1.71.5-.89.47-1.95-.08-2.82l-2.06-3.3c-.61-.97-1.77-1.57-3.04-1.57h-2.33v3h2.33c.29,0,.46.12.49.16l1.96,3.15c-.08.04-.21.09-.4.09h-4.25c-.29,0-.47-.11-.47-.09l-1.78-10.98-2.18.35-.18-5.05-2.51.09-2.51-.09-.18,5.05-2.18-.33-1.67,11.06h-4.29c-.15,0-.24-.04-.3-.08l1.93-3.32h2.45v-3h-3.31c-.53,0-1.03.28-1.3.75l-2.42,4.16c-.52.9-.52,1.97,0,2.86.58,1,1.71,1.63,2.95,1.63h5.58c.74,0,1.37-.54,1.48-1.28l.83-5.52-.4,11.37c-.09,2.01-1.74,3.59-3.75,3.59h-5.67c-.65,0-.98-.43-1.09-.61s-.34-.68-.04-1.25l.6-1.13h6.86v-3h-7.77c-.56,0-1.07.31-1.33.8l-1.02,1.94c-.7,1.34-.65,2.91.13,4.2.78,1.29,2.15,2.06,3.66,2.06h5.67c3.62,0,6.59-2.84,6.75-6.47l.33-9.48.33,9.51c.16,3.62,3.12,6.45,6.74,6.45h5.66c1.51,0,2.88-.77,3.66-2.07.78-1.29.83-2.87.13-4.21Z"/>
      <path class="cls-6" d="M35.84,19.69c4.54-7.26-.68-16.69-9.25-16.69h-15.67C2.36,3-2.87,12.43,1.68,19.69l7.84,12.53c.19.3.39.56.6.83-.35-.14-.7-.27-1.04-.38-.82-.26-1.68-.02-2.26.61-.57.62-.72,1.5-.39,2.28.17.4.31.76.45,1.09,1.07,2.64,1.69,3.48,3.38,3.48.76,0,1.73-.17,3.05-.42.64-.12,1.39-.27,2.25-.42.74-.13,1.3-.71,1.4-1.46.03-.23,0-.45-.06-.67,1.24.21,2.5.21,3.74,0-.06.21-.09.44-.06.67.1.74.66,1.33,1.4,1.46.87.15,1.61.29,2.25.42,1.32.25,2.3.42,3.05.42,1.68,0,2.3-.84,3.38-3.48.13-.33.28-.69.45-1.09.33-.78.18-1.66-.39-2.28-.57-.63-1.44-.86-2.26-.61-.35.11-.7.24-1.04.38.21-.27.41-.54.6-.83l7.84-12.53ZM12.92,37.74c-1.56.3-2.69.51-3.06.34-.31-.14-.65-1-1.14-2.19-.14-.33-.29-.7-.45-1.1-.01-.03-.04-.09.03-.17.04-.04.08-.06.12-.06.03,0,.05,0,.06.01,1.3.4,2.7,1.18,4.06,1.93.58.32,1.18.66,1.78.96-.51.09-.97.18-1.39.26ZM29.05,34.58s.11-.04.18.05c.06.07.04.14.03.16-.17.4-.32.77-.45,1.1-.48,1.19-.83,2.05-1.14,2.19-.37.17-1.5-.04-3.06-.34-.42-.08-.88-.17-1.39-.26.6-.31,1.2-.64,1.78-.96,1.36-.75,2.76-1.53,4.06-1.93Z"/>
      <g class="cls-10">
        <circle class="cls-2" cx="18.85" cy="5" r="5"/>
        <circle class="cls-2" cx="11.85" cy="25" r="2"/>
        <circle class="cls-2" cx="19.85" cy="18" r="4"/>
      </g>
    </g>
  </g>
</svg>